# xmcd
#
# Track frame offsets: 
#        150
#        21211
#        40977
#        65572
#        88044
#        109704
#        129630
#        151031
#        174126
#        193808
#
# Disc length: 2878 seconds
#
# Revision: 0
# Processed by: cddbd v1.5.2PL0 Copyright (c) Steve Scherf et al.
# Submitted via: ExactAudioCopy v0.95a5
#
DISCID=7c0b3c0a
DTITLE=苏云 - 云的声音
DYEAR=1900
DGENRE=Pop
TTITLE0=我有一段情
TTITLE1=知音
TTITLE2=雁南飞
TTITLE3=矜持
TTITLE4=渴望
TTITLE5=无声的雨
TTITLE6=这样爱你对不对
TTITLE7=爱的箴言
TTITLE8=穿过你的黑发的我的手
TTITLE9=棋子
EXTD=
EXTT0=
EXTT1=
EXTT2=
EXTT3=
EXTT4=
EXTT5=
EXTT6=
EXTT7=
EXTT8=
EXTT9=
PLAYORDER=
